<?xml version="1.0" encoding="utf-8"?>
<!-- Generator: Adobe Illustrator 23.0.6, SVG Export Plug-In . SVG Version: 6.00 Build 0)  -->
<svg version="1.1" id="Capa_1" xmlns="http://www.w3.org/2000/svg" xmlns:xlink="http://www.w3.org/1999/xlink" x="0px" y="0px"
	 viewBox="0 0 600 600" style="enable-background:new 0 0 600 600;" xml:space="preserve">
<style type="text/css">
	.st0{fill:#007BFF;}
	.st1{fill:#99CCFF;}
	.st2{fill:#0055A8;}
</style>
<g id="Capa_3">
	<g>
		<g>
			<path class="st0" d="M300.3,600c-80.1,0-155.3-31.2-211.9-87.8S0.6,380.4,0.6,300.3c0-51.7,13.4-102.8,38.8-147.5
				C64,109.3,99.3,72.4,141.7,46c6.3-3.9,14.6-2,18.5,4.3c3.9,6.3,2,14.6-4.3,18.5c-38.5,24.1-70.8,57.7-93.2,97.3
				c-23.1,40.8-35.3,87.2-35.3,134.4c0,72.9,28.3,141.5,79.9,193s120.1,79.8,192.9,79.8s141.5-28.3,193-79.9
				c51.5-51.5,79.9-120.1,79.9-193s-28.3-141.5-79.9-193s-120.1-79.9-193-79.9c-7.4,0-13.4-6-13.4-13.4s6-13.4,13.4-13.4
				c80.1,0,155.3,31.2,211.9,87.8S600,220.1,600,300.2s-31.2,155.3-87.8,211.9S380.4,600,300.3,600z"/>
		</g>
		<g>
			<g>
				<polygon class="st0" points="129,31.2 161.1,87.9 173.4,43.6 				"/>
			</g>
		</g>
	</g>
</g>
<g>
	<path class="st1" d="M376.3,245.1h-54.9c-3.3,0-6,2.7-6,6v28.1c0,3.3,2.7,6,6,6h27.4v15.1c0,1.1,0.9,1.9,1.9,1.9
		c0.5,0,1-0.2,1.4-0.7l14-16.3h10.3c3.3,0,6-2.7,6-6v-28.1C382.3,247.7,379.6,245.1,376.3,245.1z"/>
	<path class="st2" d="M376.3,240h-54.9c-6.1,0-11,5-11,11v28.1c0,6.1,5,11,11,11h22.4v10c0,3.8,3.1,6.9,6.9,6.9c2,0,3.9-0.9,5.2-2.4
		l12.4-14.5h7.9c6.1,0,11-5,11-11v-28.1C387.3,245,382.3,240,376.3,240z M382.3,279.1c0,3.3-2.7,6-6,6h-10.2l-14,16.3
		c-0.4,0.4-0.9,0.7-1.4,0.7c-0.9,0-1.9-0.8-1.9-1.9v-15.1h-27.4c-3.3,0-6-2.7-6-6v-28.1c0-3.3,2.7-6,6-6h54.7c3.3,0,6,2.7,6,6
		L382.3,279.1L382.3,279.1z"/>
	<path class="st1" d="M349.5,315.4h-28.1c-3.3,0-6,2.7-6,6v27.4h-15.1c-1.7,0-2.5,2.1-1.2,3.3l16.3,14v10.3c0,3.3,2.7,6,6,6h28.1
		c3.3,0,6-2.7,6-6v-54.9C355.5,318,352.8,315.4,349.5,315.4z"/>
	<path class="st2" d="M349.5,310.3h-28.1c-6.1,0-11,5-11,11v22.4h-10c-2.9,0-5.5,1.8-6.4,4.5c-1,2.7-0.3,5.7,2,7.6l14.5,12.4v7.9
		c0,6.1,5,11,11,11h28.1c6.1,0,11-5,11-11v-54.9C360.6,315.3,355.6,310.3,349.5,310.3z M355.5,376.2c0,3.3-2.7,6-6,6h-28.1
		c-3.3,0-6-2.7-6-6v-10.2l-16.3-14c-1.3-1.1-0.5-3.3,1.2-3.3h15.1v-27.4c0-3.3,2.7-6,6-6h28.1c3.3,0,6,2.7,6,6V376.2z"/>
	<path class="st1" d="M279.1,315.4h-27.4v-15.1c0-1.1-0.9-1.9-1.9-1.9c-0.5,0-1,0.2-1.4,0.7l-14,16.3h-10.2c-3.3,0-6,2.7-6,6v28.1
		c0,3.3,2.7,6,6,6h54.9c3.3,0,6-2.7,6-6v-28.1C285.2,318,282.5,315.4,279.1,315.4z"/>
	<path class="st2" d="M279.1,310.3h-22.4v-10c0-3.8-3.1-6.9-6.9-6.9c-2,0-3.9,0.9-5.2,2.4l-12.3,14.5h-7.9c-6.1,0-11,5-11,11v28.1
		c0,6.1,5,11,11,11h54.9c6.1,0,11-5,11-11v-28.1C290.3,315.3,285.3,310.3,279.1,310.3z M285.2,349.4c0,3.3-2.7,6-6,6h-54.9
		c-3.3,0-6-2.7-6-6v-28.1c0-3.3,2.7-6,6-6h10.2l14-16.3c0.4-0.4,0.9-0.7,1.4-0.7c0.9,0,1.9,0.8,1.9,1.9v15.1h27.4c3.3,0,6,2.7,6,6
		L285.2,349.4L285.2,349.4z"/>
	<path class="st1" d="M301.5,248.5l-16.3-14v-10.2c0-3.3-2.7-6-6-6h-28.1c-3.3,0-6,2.7-6,6v54.9c0,3.3,2.7,6,6,6h28.1
		c3.3,0,6-2.7,6-6v-27.4h15.1C302,251.7,302.8,249.6,301.5,248.5z"/>
	<path class="st2" d="M306.7,252.3c1-2.7,0.3-5.7-2-7.6l-14.5-12.4v-7.9c0-6.1-5-11-11-11h-28.1c-6.1,0-11,5-11,11v54.9
		c0,6.1,5,11,11,11h28.1c6.1,0,11-5,11-11v-22.4h10C303.2,256.8,305.7,255,306.7,252.3z M285.2,279.1c0,3.3-2.7,6-6,6h-28.1
		c-3.3,0-6-2.7-6-6v-54.9c0-3.3,2.7-6,6-6h28.1c3.3,0,6,2.7,6,6v10.2l16.3,14c1.3,1.1,0.5,3.3-1.2,3.3h-15.1V279.1z"/>
</g>
</svg>
