<?xml version="1.0" encoding="utf-8"?>
<!-- Generator: Adobe Illustrator 23.0.6, SVG Export Plug-In . SVG Version: 6.00 Build 0)  -->
<svg version="1.1" xmlns="http://www.w3.org/2000/svg" xmlns:xlink="http://www.w3.org/1999/xlink" x="0px" y="0px"
	 viewBox="0 0 150 150" style="enable-background:new 0 0 150 150;" xml:space="preserve">
<style type="text/css">
	.st0{display:none;}
	.st1{display:inline;}
	.st2{fill:#FFFFFF;}
	.st3{display:inline;fill:#FFFFFF;}
</style>
<g id="Capa_2" class="st0">
	<rect class="st1" width="150" height="150"/>
</g>
<g id="Acceso_a_la_justicia" class="st0">
	<g class="st1">
		<g>
			<path class="st2" d="M107.38,55.77v-4.29H81.09c-0.65-1.83-2.09-3.28-3.93-3.93v-9.11h-4.29v9.11c-1.83,0.65-3.28,2.09-3.93,3.93
				H42.63v4.29H48l-9.67,23.22v0.42c0,5.93,4.82,10.75,10.75,10.75h4.29c5.93,0,10.75-4.82,10.75-10.75v-0.42l-9.67-23.22h14.48
				c0.65,1.83,2.09,3.28,3.93,3.93v30.81c-4.26,0.86-7.61,4.28-8.42,8.57c-4.99,0.92-8.78,5.31-8.78,10.57v2.15h38.68v-2.15
				c0-5.25-3.79-9.63-8.78-10.57c-0.8-4.29-4.15-7.69-8.42-8.57V59.7c1.83-0.65,3.28-2.09,3.93-3.93h14.48l-9.67,23.22v0.42
				c0,5.93,4.82,10.75,10.75,10.75h4.29c5.93,0,10.75-4.82,10.75-10.75v-0.42L102,55.77H107.38z M51.23,59.21l7.52,18.06H43.71
				L51.23,59.21z M53.37,85.86h-4.29c-2.81,0-5.19-1.8-6.08-4.31h16.45C58.57,84.07,56.17,85.86,53.37,85.86z M98.78,59.21
				l7.52,18.06H91.26L98.78,59.21z M100.94,85.86h-4.29c-2.81,0-5.19-1.8-6.08-4.31h16.45C106.12,84.07,103.74,85.86,100.94,85.86z
				 M89.69,107.49H60.33c0.88-2.5,3.28-4.29,6.08-4.29h17.2C86.41,103.2,88.79,104.99,89.69,107.49z M81.09,98.9H68.93
				c0.89-2.5,3.28-4.29,6.08-4.29S80.19,96.39,81.09,98.9z M75.01,55.77c-1.18,0-2.15-0.97-2.15-2.15s0.97-2.15,2.15-2.15
				s2.15,0.97,2.15,2.15C77.16,54.82,76.19,55.77,75.01,55.77L75.01,55.77z"/>
		</g>
	</g>
	<g class="st1">
		<g>
			<g>
				<path class="st2" d="M100.94,49.18C94.01,42.25,84.8,38.44,75,38.44s-19.01,3.82-25.94,10.74
					c-6.93,6.93-10.74,16.14-10.74,25.94s3.82,19.01,10.74,25.94C55.99,107.99,65.2,111.8,75,111.8s19.01-3.82,25.94-10.74
					c6.93-6.93,10.74-16.14,10.74-25.94S107.87,56.11,100.94,49.18z M75,107.5c-17.86,0-32.38-14.53-32.38-32.38
					S57.14,42.74,75,42.74s32.38,14.53,32.38,32.38S92.86,107.5,75,107.5z"/>
			</g>
		</g>
		<g>
			<g>
				<path class="st2" d="M75,49.9c-4.35,0-7.88,3.54-7.88,7.88s3.54,7.88,7.88,7.88s7.88-3.54,7.88-7.88S79.35,49.9,75,49.9z
					 M75,61.36c-1.98,0-3.58-1.61-3.58-3.58S73.02,54.2,75,54.2s3.58,1.61,3.58,3.58S76.98,61.36,75,61.36z"/>
			</g>
		</g>
		<g>
			<g>
				<path class="st2" d="M82.16,95.75V69.96H64.97v4.3h2.87v21.49h-2.87v4.3h20.06v-4.3H82.16z M77.87,95.75h-5.73V74.26h5.73V95.75
					z"/>
			</g>
		</g>
	</g>
</g>
<g id="Acceso_a_la_información_pública_x0A_" class="st0">
</g>
<g id="Elecciones" class="st0">
	<path class="st3" d="M111.87,38.15l-5.13,0L94.89,50l0.03,0.03H75.37l-9.09,9.09h-9.81v17.49H45.39l-7.25,17.87v17.38h73.7V94.47
		l-7.25-17.87H93.5v-4.08h2.92c6.2,0,11.25-5.05,11.25-11.25c0-0.47-0.03-0.93-0.09-1.38l4.28-4.28V38.15z M42.45,107.53V97.05
		h65.06v10.48H42.45z M101.67,80.92l4.79,11.81H43.5l4.79-11.81h8.17v3.75h-4.08v4.32h4.08H93.5h4.08v-4.32H93.5v-3.75L101.67,80.92
		z M89.18,84.67h-28.4V63.43h19.69c-0.28,0.74-0.44,1.55-0.44,2.39v6.71h9.15L89.18,84.67L89.18,84.67z M96.42,68.21H84.35v-2.39
		c0-1.32,1.07-2.39,2.39-2.39h7.68v-4.32h-7.68c-0.03,0-0.06,0-0.09,0v0H72.38l4.78-4.78h19.26c3.82,0,6.93,3.11,6.93,6.93
		S100.24,68.21,96.42,68.21L96.42,68.21z M100.29,50.71l7.26-7.26v10.38L106,55.38C104.68,53.24,102.67,51.58,100.29,50.71
		L100.29,50.71z"/>
</g>
<g id="División_de_poderes">
	<g>
		<g>
			<path class="st2" d="M108.18,104.31v-1.23c-0.01-1.55-0.99-2.93-2.46-3.45v-1.47c0-1.56-0.99-2.94-2.46-3.46V75.82
				c1.47-0.52,2.45-1.9,2.46-3.46v-2.17l2.24-4.48l3.54-3.55c0.48-0.48,0.48-1.26,0-1.74c-0.07-0.07-0.15-0.13-0.23-0.18L75.64,38.5
				c-0.39-0.24-0.89-0.24-1.28,0L38.72,60.25c-0.58,0.35-0.76,1.11-0.41,1.69c0.05,0.08,0.11,0.16,0.18,0.23l3.54,3.55l2.24,4.48
				v2.17c0,1.56,0.99,2.94,2.46,3.46V94.7c-1.47,0.52-2.45,1.9-2.46,3.46v1.47c-1.46,0.52-2.45,1.9-2.46,3.45v1.23
				c-2.04,0-3.68,1.65-3.69,3.69v2.46c0,0.68,0.55,1.23,1.23,1.23c0,0,0,0,0,0h71.28c0.68,0,1.23-0.55,1.23-1.23c0,0,0,0,0,0v-2.46
				C111.86,105.96,110.22,104.31,108.18,104.31z M103.26,72.36c0,0.68-0.55,1.23-1.23,1.23h-7.37c-0.68,0-1.23-0.55-1.23-1.23v-1.23
				h9.83L103.26,72.36L103.26,72.36z M68.86,94.7V75.82c1.47-0.52,2.45-1.9,2.46-3.46v-1.23h7.37v1.23c0,1.56,0.99,2.94,2.46,3.46
				V94.7c-1.47,0.52-2.45,1.9-2.46,3.46v1.23h-7.37v-1.23C71.31,96.61,70.32,95.22,68.86,94.7z M47.96,73.58
				c-0.68,0-1.23-0.55-1.23-1.23v-1.23h9.83v1.23c0,0.68-0.55,1.23-1.23,1.23H47.96z M54.11,76.04v18.43h-4.92V76.04H54.11z
				 M56.57,75.82c0.45-0.16,0.87-0.41,1.23-0.73c0.36,0.32,0.78,0.57,1.23,0.73V94.7c-0.45,0.16-0.87,0.41-1.23,0.73
				c-0.36-0.32-0.78-0.57-1.23-0.73V75.82z M59.02,98.16c0-0.68,0.55-1.23,1.23-1.23h7.37c0.68,0,1.23,0.55,1.23,1.23v1.23h-9.83
				V98.16z M61.48,94.48V76.04h4.92v18.43H61.48z M67.63,73.58h-7.37c-0.68,0-1.23-0.55-1.23-1.23v-1.23h9.83v1.23
				C68.86,73.03,68.31,73.58,67.63,73.58z M81.14,98.16c0-0.68,0.55-1.23,1.23-1.23h7.37c0.68,0,1.23,0.55,1.23,1.23v1.23h-9.83
				V98.16z M83.6,94.48V76.04h4.92v18.43H83.6z M89.75,73.58h-7.37c-0.68,0-1.23-0.55-1.23-1.23v-1.23h9.83v1.23
				C90.98,73.03,90.43,73.58,89.75,73.58z M90.98,75.82c0.45-0.16,0.87-0.41,1.23-0.73c0.36,0.32,0.78,0.57,1.23,0.73V94.7
				c-0.45,0.16-0.87,0.41-1.23,0.73c-0.36-0.32-0.78-0.57-1.23-0.73V75.82z M93.43,98.16c0-0.68,0.55-1.23,1.23-1.23h7.37
				c0.68,0,1.23,0.55,1.23,1.23v1.23h-9.83L93.43,98.16L93.43,98.16z M95.89,94.48V76.04h4.92v18.43H95.89z M43.23,63.43l-1.9-1.9
				L75,40.99l33.67,20.54l-1.9,1.9L75.64,44.27c-0.4-0.24-0.89-0.24-1.29,0L43.23,63.43z M102.61,63.75H47.39L75,46.76L102.61,63.75
				z M46.27,68.67l-1.23-2.46h59.93l-1.23,2.46H46.27z M46.74,98.16c0-0.68,0.55-1.23,1.23-1.23h7.37c0.68,0,1.23,0.55,1.23,1.23
				v1.23h-9.83V98.16z M109.41,109.22H40.59v-1.23c0-0.68,0.55-1.23,1.23-1.23h25.81c0.68,0,1.23-0.55,1.23-1.23
				c0-0.68-0.55-1.23-1.23-1.23H44.28v-1.23c0.01-0.69,0.59-1.24,1.28-1.23h58.89c0.69-0.01,1.26,0.54,1.28,1.23v1.23H82.37
				c-0.68,0-1.23,0.55-1.23,1.23c0,0.68,0.55,1.23,1.23,1.23h25.81c0.68,0,1.23,0.55,1.23,1.23V109.22z"/>
		</g>
	</g>
</g>
<g id="Ética_y_transparencia_x0A_" class="st0">
	<g class="st1">
		<g>
			<g>
				<path class="st2" d="M104.04,111.8H45.96c-4.21,0-7.64-3.43-7.64-7.64V46.08c0-4.22,3.43-7.64,7.64-7.64h58.08
					c4.21,0,7.64,3.43,7.64,7.64v58.08C111.68,108.37,108.25,111.8,104.04,111.8z M46.62,42.26c-2.47,0-4.48,2.01-4.48,4.48v56.76
					c0,2.47,2.01,4.48,4.48,4.48h56.76c2.47,0,4.48-2.01,4.48-4.48V46.74c0-2.47-2.01-4.48-4.48-4.48H46.62z"/>
			</g>
		</g>
		<g>
			<g>
				<g>
					<path class="st2" d="M71.06,96.45c-0.86,0-1.67-0.3-2.33-0.85L53.34,82.58c-0.74-0.62-1.18-1.49-1.26-2.45
						c-0.07-0.95,0.23-1.88,0.87-2.61l4.06-4.67c1.29-1.48,3.57-1.66,5.07-0.39l7.76,6.56l19.94-23.94
						c1.26-1.51,3.53-1.73,5.06-0.49l4.82,3.9c0.75,0.61,1.21,1.47,1.31,2.43c0.09,0.96-0.2,1.89-0.81,2.62L73.84,95.14
						c-0.62,0.74-1.49,1.2-2.46,1.28C71.27,96.44,71.16,96.45,71.06,96.45L71.06,96.45z M70.7,93.26c0.15,0.13,0.32,0.14,0.42,0.13
						c0.09-0.01,0.25-0.04,0.38-0.2L97.81,61.6c0.11-0.13,0.13-0.28,0.12-0.37s-0.05-0.23-0.19-0.35l-4.82-3.9
						c-0.24-0.19-0.6-0.16-0.79,0.07L71.21,82.17c-0.26,0.31-0.64,0.51-1.04,0.54c-0.4,0.02-0.81-0.09-1.12-0.35l-8.94-7.56
						c-0.24-0.2-0.59-0.17-0.79,0.06l-4.06,4.67c-0.12,0.13-0.13,0.28-0.13,0.37c0.01,0.09,0.05,0.23,0.18,0.35L70.7,93.26z"/>
				</g>
			</g>
		</g>
	</g>
</g>
</svg>
