<?xml version="1.0" encoding="utf-8"?>
<!-- Generator: Adobe Illustrator 24.0.2, SVG Export Plug-In . SVG Version: 6.00 Build 0)  -->
<svg version="1.1" id="Capa_1" xmlns="http://www.w3.org/2000/svg" xmlns:xlink="http://www.w3.org/1999/xlink" x="0px" y="0px"
	 viewBox="0 0 500 450" style="enable-background:new 0 0 500 450;" xml:space="preserve">
<style type="text/css">
	.st0{fill:#007BFF;}
	.st1{fill:#FFFFFF;}
</style>
<g>
	<rect class="st0" width="500" height="450"/>
</g>
<g>
	<g id="Ética_y_transparencia_x0A_">
		<g>
			<g>
				<g>
					<path class="st1" d="M99.3,253.51H54c-3.35,0-5.98-2.63-5.98-5.98v-45.3c0-3.35,2.63-5.98,5.98-5.98h45.3
						c3.35,0,5.98,2.63,5.98,5.98v45.3C105.16,250.88,102.53,253.51,99.3,253.51z M54.48,199.24c-1.91,0-3.47,1.55-3.47,3.47v44.23
						c0,1.91,1.55,3.47,3.47,3.47h44.23c1.91,0,3.47-1.55,3.47-3.47v-44.23c0-1.91-1.55-3.47-3.47-3.47H54.48L54.48,199.24z"/>
				</g>
			</g>
			<g>
				<g>
					<g>
						<path class="st1" d="M73.48,241.55c-0.72,0-1.31-0.24-1.79-0.72l-11.95-10.16c-0.6-0.48-0.96-1.2-0.96-1.91
							c-0.12-0.72,0.12-1.43,0.72-2.03l3.11-3.59c0.96-1.2,2.75-1.31,3.94-0.36l6.1,5.14l15.54-18.65c0.96-1.2,2.75-1.31,3.94-0.36
							l3.71,3.11c0.6,0.48,0.96,1.2,0.96,1.91c0.12,0.72-0.12,1.43-0.6,2.03L75.76,240.6c-0.48,0.6-1.2,0.96-1.91,0.96
							C73.72,241.55,73.6,241.55,73.48,241.55L73.48,241.55z M73.25,239.04c0.12,0.12,0.24,0.12,0.36,0.12s0.24,0,0.36-0.12
							l20.56-24.62c0-0.12,0-0.24,0-0.36s0-0.12-0.12-0.24l-3.71-3.11c-0.24-0.12-0.48-0.12-0.6,0.12l-16.5,19.6
							c-0.24,0.24-0.48,0.36-0.84,0.48c-0.36,0-0.6-0.12-0.84-0.24L65,224.82c-0.12-0.12-0.48-0.12-0.6,0l-3.11,3.59
							c-0.24,0.12-0.24,0.24-0.24,0.24c0,0.12,0,0.12,0.12,0.24L73.25,239.04z"/>
					</g>
				</g>
			</g>
		</g>
	</g>
	<g id="División_de_poderes">
		<g>
			<g>
				<path class="st1" d="M189.26,247.71v-0.96c0-1.2-0.84-2.27-1.91-2.75v-1.2c0-1.2-0.84-2.27-1.91-2.75v-14.58
					c1.2-0.36,1.91-1.43,1.91-2.75v-1.67l1.79-3.47l2.75-2.75c0.36-0.36,0.36-0.96,0-1.31c0-0.12-0.12-0.12-0.24-0.12l-27.85-16.97
					c-0.36-0.24-0.72-0.24-0.96,0l-27.85,16.97c-0.48,0.24-0.6,0.84-0.36,1.31l0.12,0.12l2.75,2.75l1.79,3.47v1.67
					c0,1.2,0.84,2.27,1.91,2.75v14.7c-1.2,0.36-1.91,1.43-1.91,2.75v1.2c-1.2,0.36-1.91,1.43-1.91,2.75v0.96
					c-1.55,0-2.87,1.31-2.87,2.87v1.91c0,0.48,0.48,0.96,0.96,0.96l0,0h55.58c0.48,0,0.96-0.48,0.96-0.96l0,0v-1.91
					C192.13,249.03,190.81,247.71,189.26,247.71z M185.43,222.85c0,0.48-0.48,0.96-0.96,0.96h-5.74c-0.48,0-0.96-0.48-0.96-0.96
					v-0.96h7.65v0.96H185.43z M158.54,240.3v-14.82c1.2-0.36,1.91-1.43,1.91-2.75v-0.96h5.74v0.96c0,1.2,0.72,2.27,1.91,2.75v14.7
					c-1.2,0.36-1.91,1.43-1.91,2.75v0.96h-5.74v-0.96C160.45,241.73,159.73,240.66,158.54,240.3z M142.16,223.8
					c-0.48,0-0.96-0.48-0.96-0.96v-0.96h7.77v0.96c0,0.48-0.48,0.96-0.96,0.96H142.16z M147.06,225.72v14.34h-3.82v-14.34H147.06z
					 M148.98,225.48c0.36-0.12,0.72-0.36,0.96-0.6c0.24,0.24,0.6,0.48,0.96,0.6v14.7c-0.36,0.12-0.72,0.36-0.96,0.6
					c-0.24-0.24-0.6-0.48-0.96-0.6V225.48z M150.89,242.93c0-0.48,0.48-0.96,0.96-0.96h5.74c0.48,0,0.96,0.48,0.96,0.96v0.96h-7.65
					v-0.96H150.89z M152.8,240.06v-14.34h3.82v14.34H152.8z M157.58,223.8h-5.74c-0.48,0-0.96-0.48-0.96-0.96v-0.96h7.65v0.96
					C158.54,223.33,158.06,223.8,157.58,223.8z M168.1,242.93c0-0.48,0.48-0.96,0.96-0.96h5.74c0.48,0,0.96,0.48,0.96,0.96v0.96
					h-7.65v-0.96H168.1z M170.01,240.06v-14.34h3.82v14.34H170.01z M174.79,223.8h-5.74c-0.48,0-0.96-0.48-0.96-0.96v-0.96h7.65
					v0.96C175.75,223.33,175.39,223.8,174.79,223.8z M175.75,225.48c0.36-0.12,0.72-0.36,0.96-0.6c0.24,0.24,0.6,0.48,0.96,0.6v14.7
					c-0.36,0.12-0.72,0.36-0.96,0.6c-0.24-0.24-0.6-0.48-0.96-0.6V225.48z M177.66,242.93c0-0.48,0.48-0.96,0.96-0.96h5.74
					c0.48,0,0.96,0.48,0.96,0.96v0.96h-7.65v-0.96H177.66z M179.57,240.06v-14.34h3.82v14.34H179.57z M138.58,215.92l-1.55-1.55
					l26.3-16.02l26.3,16.02l-1.43,1.43l-24.38-14.94c-0.36-0.24-0.72-0.24-0.96,0L138.58,215.92z M184.83,216.15H141.8l21.52-13.27
					L184.83,216.15z M140.97,219.98l-0.96-1.91h46.74l-0.96,1.91H140.97z M141.33,242.93c0-0.48,0.48-0.96,0.96-0.96h5.74
					c0.48,0,0.96,0.48,0.96,0.96v0.96h-7.65v-0.96H141.33z M190.21,251.54h-53.79v-0.96c0-0.48,0.48-0.96,0.96-0.96h20.08
					c0.48,0,0.96-0.48,0.96-0.96s-0.48-0.96-0.96-0.96h-18.17v-0.96c0-0.6,0.48-0.96,0.96-0.96h45.9c0.6,0,0.96,0.36,0.96,0.96v0.96
					h-18.05c-0.48,0-0.96,0.48-0.96,0.96s0.48,0.96,0.96,0.96h20.08c0.48,0,0.96,0.48,0.96,0.96L190.21,251.54L190.21,251.54z"/>
			</g>
		</g>
	</g>
	<g id="Elecciones">
		<path class="st1" d="M279,196.25h-3.94l-9.32,9.32l0,0h-15.3l-7.05,7.05h-7.65v13.63h-8.61l-5.74,13.98v13.51h57.49v-13.51
			l-5.62-13.98h-8.61v-3.23h2.27c4.78,0,8.73-3.94,8.73-8.73c0-0.36,0-0.72-0.12-1.08l3.35-3.35L279,196.25L279,196.25z
			 M224.85,250.4v-8.13h50.8v8.13H224.85z M270.99,229.72l3.71,9.2h-49.13l3.71-9.2h6.34v2.99h-3.23v3.35h3.23h28.93h3.23v-3.35
			h-3.23v-2.99H270.99z M261.31,232.59h-22.23v-16.5h15.3c-0.24,0.6-0.36,1.2-0.36,1.91v5.26h7.17v9.32L261.31,232.59L261.31,232.59
			z M266.93,219.8h-9.44v-1.91c0-1.08,0.84-1.91,1.91-1.91h5.98v-3.35h-5.98c0,0,0,0-0.12,0l0,0h-11.12l3.71-3.71h15.06
			c2.99,0,5.38,2.39,5.38,5.38C272.31,217.29,269.92,219.8,266.93,219.8L266.93,219.8z M269.92,206.05l5.62-5.62v8.13l-1.2,1.2
			C273.38,208.09,271.83,206.77,269.92,206.05L269.92,206.05z"/>
	</g>
	<g id="Acceso_a_la_información_pública_x0A_">
		<g>
			<g>
				<g>
					<path class="st1" d="M357,204.62c-5.38-5.38-12.55-8.37-20.2-8.37s-14.82,2.99-20.2,8.37c-5.38,5.38-8.37,12.55-8.37,20.2
						c0,7.65,2.99,14.82,8.37,20.2s12.55,8.37,20.2,8.37s14.82-2.99,20.2-8.37s8.37-12.55,8.37-20.2
						C365.37,217.17,362.5,210.12,357,204.62z M336.8,250.16c-13.87,0-25.22-11.36-25.22-25.22c0-13.87,11.36-25.34,25.22-25.34
						s25.22,11.36,25.22,25.22S350.79,250.16,336.8,250.16z"/>
				</g>
			</g>
			<g>
				<g>
					<path class="st1" d="M336.8,205.22c-3.35,0-6.1,2.75-6.1,6.1s2.75,6.1,6.1,6.1s6.1-2.75,6.1-6.1S340.15,205.22,336.8,205.22z
						 M336.8,214.18c-1.55,0-2.75-1.31-2.75-2.75s1.2-2.75,2.75-2.75s2.75,1.31,2.75,2.75S338.35,214.18,336.8,214.18z"/>
				</g>
			</g>
			<g>
				<g>
					<path class="st1" d="M342.42,240.96v-20.08h-13.39v3.35h2.27v16.73h-2.27v3.35h15.66v-3.35L342.42,240.96L342.42,240.96z
						 M339.07,240.96h-4.42v-16.73h4.42V240.96z"/>
				</g>
			</g>
		</g>
	</g>
	<g id="Acceso_a_la_justicia">
		<g>
			<g>
				<path class="st1" d="M448.39,209.76v-3.35h-20.44c-0.48-1.43-1.67-2.51-3.11-3.11v-7.05h-3.35v7.05
					c-1.43,0.48-2.51,1.67-3.11,3.11h-20.44v3.35h4.18l-7.53,18.17v0.36c0,4.66,3.82,8.37,8.37,8.37h3.35
					c4.66,0,8.37-3.71,8.37-8.37v-0.36l-7.53-18.05h11.24c0.48,1.43,1.67,2.51,3.11,3.11v24.03c-3.35,0.72-5.98,3.35-6.57,6.69
					c-3.94,0.72-6.81,4.18-6.81,8.25v1.55h30.24v-1.67c0-4.06-2.99-7.53-6.81-8.25c-0.6-3.35-3.23-5.98-6.57-6.69v-24.03
					c1.43-0.48,2.51-1.67,3.11-3.11h11.36l-7.53,18.05v0.36c0,4.66,3.82,8.37,8.37,8.37h3.35c4.66,0,8.37-3.71,8.37-8.37v-0.36
					l-7.53-18.05C444.21,209.88,448.39,209.88,448.39,209.76z M404.64,212.51l5.86,14.1h-11.71L404.64,212.51z M406.31,233.31h-3.35
					c-2.15,0-4.06-1.43-4.78-3.35h12.79C410.38,231.87,408.47,233.31,406.31,233.31z M441.7,212.51l5.86,14.1h-11.71L441.7,212.51z
					 M443.37,233.31h-3.35c-2.15,0-4.06-1.43-4.78-3.35h12.79C447.43,231.87,445.64,233.31,443.37,233.31z M434.64,250.16h-22.95
					c0.72-1.91,2.51-3.35,4.78-3.35h13.39C432.13,246.81,433.93,248.25,434.64,250.16z M427.95,243.47h-9.56
					c0.72-1.91,2.51-3.35,4.78-3.35C425.32,240.12,427.23,241.55,427.95,243.47z M423.17,209.76c-0.96,0-1.67-0.72-1.67-1.67
					s0.72-1.67,1.67-1.67s1.67,0.72,1.67,1.67S424.12,209.76,423.17,209.76L423.17,209.76z"/>
			</g>
		</g>
	</g>
</g>
</svg>
