<?xml version="1.0" encoding="utf-8"?>
<!-- Generator: Adobe Illustrator 23.0.6, SVG Export Plug-In . SVG Version: 6.00 Build 0)  -->
<svg version="1.1" xmlns="http://www.w3.org/2000/svg" xmlns:xlink="http://www.w3.org/1999/xlink" x="0px" y="0px"
	 viewBox="0 0 50 50" style="enable-background:new 0 0 50 50;" xml:space="preserve">
<style type="text/css">
	.st0{display:none;}
	.st1{display:inline;}
</style>
<g id="Capa_2" class="st0">
	<rect x="-50" y="-50" class="st1" width="150" height="150"/>
</g>
<g id="Acceso_a_la_justicia" class="st0">
	<g class="st1">
		<g>
			<path d="M46.13,12.45v-2.8H28.97c-0.43-1.2-1.37-2.14-2.56-2.56V1.14h-2.8v5.95c-1.2,0.43-2.14,1.37-2.56,2.56H3.88v2.8h3.5
				L1.06,27.6v0.28c0,3.87,3.15,7.02,7.02,7.02h2.8c3.87,0,7.02-3.15,7.02-7.02V27.6l-6.31-15.15h9.45c0.43,1.2,1.37,2.14,2.56,2.56
				v20.11c-2.78,0.56-4.97,2.79-5.49,5.59c-3.26,0.6-5.73,3.46-5.73,6.9v1.41h25.25v-1.41c0-3.42-2.47-6.28-5.73-6.9
				c-0.52-2.8-2.71-5.02-5.49-5.59V15.01c1.2-0.43,2.14-1.37,2.56-2.56h9.45L32.1,27.6v0.28c0,3.87,3.15,7.02,7.02,7.02h2.8
				c3.87,0,7.02-3.15,7.02-7.02V27.6l-6.31-15.15H46.13z M9.49,14.7l4.91,11.79H4.58L9.49,14.7z M10.88,32.09h-2.8
				c-1.83,0-3.38-1.18-3.97-2.81h10.74C14.28,30.92,12.71,32.09,10.88,32.09z M40.52,14.7l4.91,11.79h-9.82L40.52,14.7z
				 M41.93,32.09h-2.8c-1.83,0-3.38-1.18-3.97-2.81H45.9C45.31,30.92,43.76,32.09,41.93,32.09z M34.58,46.21H15.42
				c0.57-1.63,2.14-2.8,3.97-2.8h11.22C32.45,43.41,34,44.57,34.58,46.21z M28.97,40.6h-7.94c0.58-1.63,2.14-2.8,3.97-2.8
				C26.84,37.8,28.39,38.96,28.97,40.6z M25,12.45c-0.77,0-1.41-0.63-1.41-1.41S24.23,9.64,25,9.64s1.41,0.63,1.41,1.41
				C26.41,11.83,25.78,12.45,25,12.45L25,12.45z"/>
		</g>
	</g>
	<g class="st1">
		<g>
			<g>
				<path d="M41.93,8.15C37.41,3.63,31.39,1.14,25,1.14S12.59,3.63,8.07,8.15c-4.52,4.52-7.01,10.53-7.01,16.93
					s2.49,12.41,7.01,16.93c4.52,4.52,10.53,7.01,16.93,7.01s12.41-2.49,16.93-7.01c4.52-4.52,7.01-10.53,7.01-16.93
					S46.45,12.67,41.93,8.15z M25,46.21c-11.65,0-21.13-9.48-21.13-21.13S13.35,3.94,25,3.94s21.13,9.48,21.13,21.13
					S36.65,46.21,25,46.21z"/>
			</g>
		</g>
		<g>
			<g>
				<path d="M25,8.62c-2.84,0-5.14,2.31-5.14,5.14s2.31,5.14,5.14,5.14s5.14-2.31,5.14-5.14S27.84,8.62,25,8.62z M25,16.1
					c-1.29,0-2.34-1.05-2.34-2.34s1.05-2.34,2.34-2.34s2.34,1.05,2.34,2.34S26.29,16.1,25,16.1z"/>
			</g>
		</g>
		<g>
			<g>
				<path d="M29.68,38.54V21.71H18.45v2.81h1.87v14.03h-1.87v2.81h13.09v-2.81H29.68z M26.87,38.54h-3.74V24.52h3.74V38.54z"/>
			</g>
		</g>
	</g>
</g>
<g id="Acceso_a_la_información_pública_x0A_" class="st0">
</g>
<g id="Elecciones" class="st0">
	<path class="st1" d="M49.06,0.95l-3.35,0l-7.73,7.73L38,8.7H25.24l-5.94,5.94h-6.4v11.41H5.67L0.94,37.71v11.34h48.1V37.71
		L44.3,26.05h-7.23v-2.66h1.91c4.05,0,7.34-3.29,7.34-7.34c0-0.31-0.02-0.61-0.06-0.9l2.79-2.79V0.95z M3.76,46.23v-6.84h42.46v6.84
		L3.76,46.23z M42.41,28.87l3.13,7.71H4.44l3.13-7.71h5.33v2.45h-2.66v2.82h2.66h24.17h2.66v-2.82h-2.66v-2.45L42.41,28.87z
		 M34.25,31.31H15.72V17.45h12.85c-0.19,0.48-0.29,1.01-0.29,1.56v4.38h5.97L34.25,31.31L34.25,31.31z M38.98,20.57H31.1v-1.56
		c0-0.86,0.7-1.56,1.56-1.56h5.01v-2.82h-5.01c-0.02,0-0.04,0-0.06,0v0h-9.32l3.12-3.12h12.57c2.5,0,4.53,2.03,4.53,4.53
		S41.48,20.57,38.98,20.57L38.98,20.57z M41.5,9.15l4.74-4.74v6.77l-1.01,1.01C44.37,10.8,43.06,9.72,41.5,9.15L41.5,9.15z"/>
</g>
<g id="División_de_poderes" class="st0">
	<g class="st1">
		<g>
			<path d="M46.66,44.13v-0.8c-0.01-1.01-0.65-1.91-1.6-2.25v-0.96c0-1.02-0.65-1.92-1.6-2.26V25.53c0.96-0.34,1.6-1.24,1.6-2.26
				v-1.41l1.46-2.92l2.31-2.31c0.31-0.31,0.31-0.82,0-1.13c-0.05-0.05-0.1-0.09-0.15-0.12L25.42,1.18c-0.26-0.16-0.58-0.16-0.83,0
				L1.32,15.37c-0.38,0.23-0.5,0.72-0.27,1.1c0.03,0.05,0.07,0.11,0.12,0.15l2.31,2.31l1.46,2.92v1.41c0,1.02,0.65,1.92,1.6,2.26
				v12.33c-0.96,0.34-1.6,1.24-1.6,2.26v0.96c-0.96,0.34-1.6,1.24-1.6,2.25v0.8c-1.33,0-2.4,1.08-2.41,2.41v1.6
				c0,0.44,0.36,0.8,0.8,0.8c0,0,0,0,0,0h46.52c0.44,0,0.8-0.36,0.8-0.8c0,0,0,0,0,0v-1.6C49.06,45.21,47.98,44.13,46.66,44.13z
				 M43.45,23.27c0,0.44-0.36,0.8-0.8,0.8h-4.81c-0.44,0-0.8-0.36-0.8-0.8v-0.8h6.42L43.45,23.27L43.45,23.27z M20.99,37.86V25.53
				c0.96-0.34,1.6-1.24,1.6-2.26v-0.8h4.81v0.8c0,1.02,0.65,1.92,1.6,2.26v12.33c-0.96,0.34-1.6,1.24-1.6,2.26v0.8h-4.81v-0.8
				C22.59,39.1,21.95,38.2,20.99,37.86z M7.35,24.08c-0.44,0-0.8-0.36-0.8-0.8v-0.8h6.42v0.8c0,0.44-0.36,0.8-0.8,0.8H7.35z
				 M11.37,25.68v12.03H8.16V25.68H11.37z M12.97,25.53c0.3-0.11,0.57-0.27,0.8-0.48c0.23,0.21,0.51,0.37,0.8,0.48v12.33
				c-0.3,0.11-0.57,0.27-0.8,0.48c-0.23-0.21-0.51-0.37-0.8-0.48V25.53z M14.57,40.12c0-0.44,0.36-0.8,0.8-0.8h4.81
				c0.44,0,0.8,0.36,0.8,0.8v0.8h-6.42V40.12z M16.18,37.71V25.68h3.21v12.03H16.18z M20.19,24.08h-4.81c-0.44,0-0.8-0.36-0.8-0.8
				v-0.8h6.42v0.8C20.99,23.72,20.63,24.08,20.19,24.08z M29.01,40.12c0-0.44,0.36-0.8,0.8-0.8h4.81c0.44,0,0.8,0.36,0.8,0.8v0.8
				h-6.42V40.12z M30.61,37.71V25.68h3.21v12.03H30.61z M34.62,24.08h-4.81c-0.44,0-0.8-0.36-0.8-0.8v-0.8h6.42v0.8
				C35.43,23.72,35.07,24.08,34.62,24.08z M35.43,25.53c0.3-0.11,0.57-0.27,0.8-0.48c0.23,0.21,0.51,0.37,0.8,0.48v12.33
				c-0.3,0.11-0.57,0.27-0.8,0.48c-0.23-0.21-0.51-0.37-0.8-0.48V25.53z M37.03,40.12c0-0.44,0.36-0.8,0.8-0.8h4.81
				c0.44,0,0.8,0.36,0.8,0.8v0.8h-6.42L37.03,40.12L37.03,40.12z M38.64,37.71V25.68h3.21v12.03H38.64z M4.27,17.45l-1.24-1.24
				L25,2.8l21.97,13.41l-1.24,1.24L25.42,4.95c-0.26-0.16-0.58-0.16-0.84,0L4.27,17.45z M43.02,17.66H6.98L25,6.57L43.02,17.66z
				 M6.25,20.87l-0.8-1.6h39.11l-0.8,1.6H6.25z M6.55,40.12c0-0.44,0.36-0.8,0.8-0.8h4.81c0.44,0,0.8,0.36,0.8,0.8v0.8H6.55V40.12z
				 M47.46,47.34H2.54v-0.8c0-0.44,0.36-0.8,0.8-0.8h16.84c0.44,0,0.8-0.36,0.8-0.8c0-0.44-0.36-0.8-0.8-0.8H4.95v-0.8
				c0.01-0.45,0.38-0.81,0.83-0.8h38.44c0.45-0.01,0.82,0.35,0.83,0.8v0.8H29.81c-0.44,0-0.8,0.36-0.8,0.8c0,0.44,0.36,0.8,0.8,0.8
				h16.84c0.44,0,0.8,0.36,0.8,0.8V47.34z"/>
		</g>
	</g>
</g>
<g id="Ética_y_transparencia_x0A_">
	<g>
		<g>
			<g>
				<path d="M43.95,49.02H6.05c-2.75,0-4.99-2.24-4.99-4.99V6.13c0-2.75,2.24-4.99,4.99-4.99h37.91c2.75,0,4.99,2.24,4.99,4.99
					v37.91C48.94,46.78,46.7,49.02,43.95,49.02z M6.48,3.63c-1.61,0-2.92,1.31-2.92,2.92V43.6c0,1.61,1.31,2.92,2.92,2.92h37.05
					c1.61,0,2.92-1.31,2.92-2.92V6.56c0-1.61-1.31-2.92-2.92-2.92H6.48z"/>
			</g>
		</g>
		<g>
			<g>
				<g>
					<path d="M22.43,39c-0.56,0-1.09-0.19-1.52-0.56l-10.04-8.49c-0.48-0.41-0.77-0.97-0.82-1.6c-0.05-0.62,0.15-1.23,0.56-1.7
						l2.65-3.05c0.84-0.97,2.33-1.08,3.31-0.25l5.07,4.28l13.01-15.62c0.82-0.99,2.31-1.13,3.3-0.32l3.14,2.55
						c0.49,0.4,0.79,0.96,0.85,1.58c0.06,0.62-0.13,1.23-0.53,1.71L24.25,38.15c-0.4,0.48-0.98,0.78-1.61,0.84
						C22.57,39,22.5,39,22.43,39L22.43,39z M22.19,36.92c0.1,0.08,0.21,0.09,0.27,0.08c0.06,0,0.17-0.03,0.25-0.13l17.17-20.62
						c0.07-0.09,0.08-0.18,0.08-0.24c-0.01-0.06-0.03-0.15-0.12-0.23l-3.14-2.55c-0.15-0.12-0.39-0.1-0.51,0.05L22.52,29.68
						c-0.17,0.21-0.41,0.33-0.68,0.36c-0.26,0.02-0.53-0.06-0.73-0.23l-5.84-4.93c-0.15-0.13-0.38-0.11-0.51,0.04l-2.65,3.05
						c-0.08,0.09-0.09,0.18-0.08,0.24c0,0.06,0.03,0.15,0.12,0.23L22.19,36.92z"/>
				</g>
			</g>
		</g>
	</g>
</g>
</svg>
