<?xml version="1.0" encoding="utf-8"?>
<!-- Generator: Adobe Illustrator 24.0.2, SVG Export Plug-In . SVG Version: 6.00 Build 0)  -->
<svg version="1.1" id="Capa_1" xmlns="http://www.w3.org/2000/svg" xmlns:xlink="http://www.w3.org/1999/xlink" x="0px" y="0px"
	 viewBox="0 0 50 50" style="enable-background:new 0 0 50 50;" xml:space="preserve">
<style type="text/css">
	.st0{display:none;}
	.st1{display:inline;}
	.st2{fill:#232948;}
</style>
<g id="Capa_2_1_" class="st0">
	<rect x="-50" y="-50" class="st1" width="150" height="150"/>
</g>
<g id="Acceso_a_la_justicia" class="st0">
	<g class="st1">
		<g>
			<path d="M46.1,12.4V9.6H29c-0.4-1.2-1.4-2.1-2.6-2.6V1.1h-2.8v5.9c-1.2,0.4-2.1,1.4-2.6,2.6H3.9v2.8h3.5L1.1,27.6v0.3
				c0,3.9,3.2,7,7,7h2.8c3.9,0,7-3.1,7-7v-0.3l-6.3-15.1H21c0.4,1.2,1.4,2.1,2.6,2.6v20.1c-2.8,0.6-5,2.8-5.5,5.6
				c-3.3,0.6-5.7,3.5-5.7,6.9V49h25.3v-1.4c0-3.4-2.5-6.3-5.7-6.9c-0.5-2.8-2.7-5-5.5-5.6V15c1.2-0.4,2.1-1.4,2.6-2.6h9.5l-6.3,15.1
				v0.3c0,3.9,3.2,7,7,7h2.8c3.9,0,7-3.1,7-7v-0.3l-6.3-15.1C42.6,12.5,46.1,12.5,46.1,12.4z M9.5,14.7l4.9,11.8H4.6L9.5,14.7z
				 M10.9,32.1H8.1c-1.8,0-3.4-1.2-4-2.8h10.7C14.3,30.9,12.7,32.1,10.9,32.1z M40.5,14.7l4.9,11.8h-9.8L40.5,14.7z M41.9,32.1h-2.8
				c-1.8,0-3.4-1.2-4-2.8h10.7C45.3,30.9,43.8,32.1,41.9,32.1z M34.6,46.2H15.4c0.6-1.6,2.1-2.8,4-2.8h11.2
				C32.5,43.4,34,44.6,34.6,46.2z M29,40.6H21c0.6-1.6,2.1-2.8,4-2.8C26.8,37.8,28.4,39,29,40.6z M25,12.4c-0.8,0-1.4-0.6-1.4-1.4
				s0.6-1.4,1.4-1.4s1.4,0.6,1.4,1.4S25.8,12.4,25,12.4L25,12.4z"/>
		</g>
	</g>
	<g class="st1">
		<g>
			<g>
				<path d="M41.9,8.1c-4.5-4.5-10.5-7-16.9-7s-12.4,2.5-16.9,7s-7,10.5-7,16.9s2.5,12.4,7,16.9s10.5,7,16.9,7s12.4-2.5,16.9-7
					s7-10.5,7-16.9S46.5,12.7,41.9,8.1z M25,46.2c-11.6,0-21.1-9.5-21.1-21.1S13.4,3.9,25,3.9s21.1,9.5,21.1,21.1S36.7,46.2,25,46.2
					z"/>
			</g>
		</g>
		<g>
			<g>
				<path d="M25,8.6c-2.8,0-5.1,2.3-5.1,5.1s2.3,5.1,5.1,5.1s5.1-2.3,5.1-5.1S27.8,8.6,25,8.6z M25,16.1c-1.3,0-2.3-1.1-2.3-2.3
					s1-2.3,2.3-2.3s2.3,1.1,2.3,2.3S26.3,16.1,25,16.1z"/>
			</g>
		</g>
		<g>
			<g>
				<path d="M29.7,38.5V21.7H18.5v2.8h1.9v14h-1.9v2.8h13.1v-2.8L29.7,38.5L29.7,38.5z M26.9,38.5h-3.7v-14h3.7V38.5z"/>
			</g>
		</g>
	</g>
</g>
<g id="Acceso_a_la_información_pública_x0A_" class="st0">
</g>
<g id="Elecciones">
	<path class="st2" d="M49.1,0.9h-3.3L38,8.7l0,0H25.2l-5.9,5.9h-6.4V26H5.7L0.9,37.7V49H49V37.7L44.3,26h-7.2v-2.7H39
		c4,0,7.3-3.3,7.3-7.3c0-0.3,0-0.6-0.1-0.9l2.8-2.8L49.1,0.9L49.1,0.9z M3.8,46.2v-6.8h42.5v6.8H3.8z M42.4,28.9l3.1,7.7H4.4
		l3.1-7.7h5.3v2.5h-2.7v2.8h2.7h24.2h2.7v-2.8h-2.7v-2.5L42.4,28.9z M34.3,31.3H15.7V17.5h12.8c-0.2,0.5-0.3,1-0.3,1.6v4.4h6V31.3
		L34.3,31.3z M39,20.6h-7.9V19c0-0.9,0.7-1.6,1.6-1.6h5v-2.8h-5c0,0,0,0-0.1,0l0,0h-9.3l3.1-3.1H39c2.5,0,4.5,2,4.5,4.5
		S41.5,20.6,39,20.6L39,20.6z M41.5,9.1l4.7-4.7v6.8l-1,1C44.4,10.8,43.1,9.7,41.5,9.1L41.5,9.1z"/>
</g>
<g id="División_de_poderes" class="st0">
	<g class="st1">
		<g>
			<path d="M46.7,44.1v-0.8c0-1-0.7-1.9-1.6-2.3v-1c0-1-0.7-1.9-1.6-2.3V25.5c1-0.3,1.6-1.2,1.6-2.3v-1.4l1.5-2.9l2.3-2.3
				c0.3-0.3,0.3-0.8,0-1.1c0-0.1-0.1-0.1-0.2-0.1L25.4,1.2c-0.3-0.2-0.6-0.2-0.8,0L1.3,15.4c-0.4,0.2-0.5,0.7-0.3,1.1
				c0,0,0.1,0.1,0.1,0.1l2.3,2.3l1.5,2.9v1.4c0,1,0.7,1.9,1.6,2.3v12.3c-1,0.3-1.6,1.2-1.6,2.3v1c-1,0.3-1.6,1.2-1.6,2.3v0.8
				c-1.3,0-2.4,1.1-2.4,2.4v1.6c0,0.4,0.4,0.8,0.8,0.8l0,0h46.5c0.4,0,0.8-0.4,0.8-0.8l0,0v-1.6C49.1,45.2,48,44.1,46.7,44.1z
				 M43.5,23.3c0,0.4-0.4,0.8-0.8,0.8h-4.8c-0.4,0-0.8-0.4-0.8-0.8v-0.8h6.4L43.5,23.3L43.5,23.3z M21,37.9V25.5
				c1-0.3,1.6-1.2,1.6-2.3v-0.8h4.8v0.8c0,1,0.6,1.9,1.6,2.3v12.3c-1,0.3-1.6,1.2-1.6,2.3v0.8h-4.8v-0.8C22.6,39.1,22,38.2,21,37.9z
				 M7.3,24.1c-0.4,0-0.8-0.4-0.8-0.8v-0.8H13v0.8c0,0.4-0.4,0.8-0.8,0.8H7.3z M11.4,25.7v12H8.2v-12H11.4z M13,25.5
				c0.3-0.1,0.6-0.3,0.8-0.5c0.2,0.2,0.5,0.4,0.8,0.5v12.3c-0.3,0.1-0.6,0.3-0.8,0.5c-0.2-0.2-0.5-0.4-0.8-0.5V25.5z M14.6,40.1
				c0-0.4,0.4-0.8,0.8-0.8h4.8c0.4,0,0.8,0.4,0.8,0.8v0.8h-6.4L14.6,40.1L14.6,40.1z M16.2,37.7v-12h3.2v12H16.2z M20.2,24.1h-4.8
				c-0.4,0-0.8-0.4-0.8-0.8v-0.8H21v0.8C21,23.7,20.6,24.1,20.2,24.1z M29,40.1c0-0.4,0.4-0.8,0.8-0.8h4.8c0.4,0,0.8,0.4,0.8,0.8
				v0.8H29L29,40.1L29,40.1z M30.6,37.7v-12h3.2v12H30.6z M34.6,24.1h-4.8c-0.4,0-0.8-0.4-0.8-0.8v-0.8h6.4v0.8
				C35.4,23.7,35.1,24.1,34.6,24.1z M35.4,25.5c0.3-0.1,0.6-0.3,0.8-0.5c0.2,0.2,0.5,0.4,0.8,0.5v12.3c-0.3,0.1-0.6,0.3-0.8,0.5
				c-0.2-0.2-0.5-0.4-0.8-0.5V25.5z M37,40.1c0-0.4,0.4-0.8,0.8-0.8h4.8c0.4,0,0.8,0.4,0.8,0.8v0.8H37L37,40.1L37,40.1z M38.6,37.7
				v-12h3.2v12H38.6z M4.3,17.5L3,16.2L25,2.8l22,13.4l-1.2,1.2L25.4,4.9c-0.3-0.2-0.6-0.2-0.8,0L4.3,17.5z M43,17.7H7L25,6.6
				L43,17.7z M6.3,20.9l-0.8-1.6h39.1l-0.8,1.6H6.3z M6.6,40.1c0-0.4,0.4-0.8,0.8-0.8h4.8c0.4,0,0.8,0.4,0.8,0.8v0.8H6.6V40.1z
				 M47.5,47.3H2.5v-0.8c0-0.4,0.4-0.8,0.8-0.8h16.8c0.4,0,0.8-0.4,0.8-0.8s-0.4-0.8-0.8-0.8H4.9v-0.8c0-0.5,0.4-0.8,0.8-0.8h38.4
				c0.5,0,0.8,0.3,0.8,0.8v0.8H29.8c-0.4,0-0.8,0.4-0.8,0.8s0.4,0.8,0.8,0.8h16.8c0.4,0,0.8,0.4,0.8,0.8L47.5,47.3L47.5,47.3z"/>
		</g>
	</g>
</g>
<g id="Ética_y_transparencia_x0A_" class="st0">
	<g class="st1">
		<g>
			<g>
				<path d="M44,49H6.1c-2.8,0-5-2.2-5-5V6.1c0-2.8,2.2-5,5-5H44c2.8,0,5,2.2,5,5V44C48.9,46.8,46.7,49,44,49z M6.5,3.6
					c-1.6,0-2.9,1.3-2.9,2.9v37c0,1.6,1.3,2.9,2.9,2.9h37c1.6,0,2.9-1.3,2.9-2.9v-37c0-1.6-1.3-2.9-2.9-2.9L6.5,3.6L6.5,3.6z"/>
			</g>
		</g>
		<g>
			<g>
				<g>
					<path d="M22.4,39c-0.6,0-1.1-0.2-1.5-0.6l-10-8.5c-0.5-0.4-0.8-1-0.8-1.6c-0.1-0.6,0.1-1.2,0.6-1.7l2.6-3
						c0.8-1,2.3-1.1,3.3-0.3l5.1,4.3l13-15.6c0.8-1,2.3-1.1,3.3-0.3l3.1,2.6c0.5,0.4,0.8,1,0.8,1.6c0.1,0.6-0.1,1.2-0.5,1.7
						L24.3,38.2c-0.4,0.5-1,0.8-1.6,0.8C22.6,39,22.5,39,22.4,39L22.4,39z M22.2,36.9c0.1,0.1,0.2,0.1,0.3,0.1c0.1,0,0.2,0,0.3-0.1
						l17.2-20.6C40,16.2,40,16.1,40,16c0-0.1,0-0.1-0.1-0.2l-3.1-2.6c-0.2-0.1-0.4-0.1-0.5,0.1L22.5,29.7c-0.2,0.2-0.4,0.3-0.7,0.4
						c-0.3,0-0.5-0.1-0.7-0.2l-5.8-4.9c-0.1-0.1-0.4-0.1-0.5,0l-2.6,3C12,28.1,12,28.2,12,28.2c0,0.1,0,0.1,0.1,0.2L22.2,36.9z"/>
				</g>
			</g>
		</g>
	</g>
</g>
</svg>
