<?xml version="1.0" encoding="utf-8"?>
<!-- Generator: Adobe Illustrator 23.0.6, SVG Export Plug-In . SVG Version: 6.00 Build 0)  -->
<svg version="1.1" id="Capa_1" xmlns="http://www.w3.org/2000/svg" xmlns:xlink="http://www.w3.org/1999/xlink" x="0px" y="0px"
	 viewBox="0 0 150 150" style="enable-background:new 0 0 150 150;" xml:space="preserve">
<style type="text/css">
	.st0{fill:#FFFFFF;}
</style>
<g>
	<g>
		<path class="st0" d="M107.38,55.77v-4.29H81.08c-0.65-1.83-2.09-3.28-3.93-3.93v-9.11h-4.29v9.11c-1.83,0.65-3.28,2.09-3.93,3.93
			H42.63v4.29H48l-9.67,23.22v0.42c0,5.93,4.82,10.75,10.75,10.75h4.29c5.93,0,10.75-4.82,10.75-10.75v-0.42l-9.67-23.22h14.48
			c0.65,1.83,2.09,3.28,3.93,3.93v30.81c-4.26,0.86-7.61,4.28-8.42,8.57c-4.99,0.92-8.78,5.31-8.78,10.57v2.15h38.68v-2.15
			c0-5.25-3.79-9.63-8.78-10.57c-0.8-4.29-4.15-7.69-8.42-8.57V59.7c1.83-0.65,3.28-2.09,3.93-3.93h14.48l-9.67,23.22v0.42
			c0,5.93,4.82,10.75,10.75,10.75h4.29c5.93,0,10.75-4.82,10.75-10.75v-0.42l-9.67-23.22H107.38z M51.23,59.21l7.52,18.06H43.71
			L51.23,59.21z M53.36,85.86h-4.29c-2.81,0-5.19-1.8-6.08-4.31h16.45C58.57,84.07,56.17,85.86,53.36,85.86z M98.78,59.21
			l7.52,18.06H91.26L98.78,59.21z M100.93,85.86h-4.29c-2.81,0-5.19-1.8-6.08-4.31h16.45C106.12,84.07,103.74,85.86,100.93,85.86z
			 M89.68,107.49H60.32c0.88-2.5,3.28-4.29,6.08-4.29h17.2C86.41,103.2,88.79,104.99,89.68,107.49z M81.08,98.9H68.92
			c0.89-2.5,3.28-4.29,6.08-4.29C77.81,94.61,80.19,96.39,81.08,98.9z M75,55.77c-1.18,0-2.15-0.97-2.15-2.15s0.97-2.15,2.15-2.15
			c1.18,0,2.15,0.97,2.15,2.15C77.16,54.82,76.19,55.77,75,55.77L75,55.77z"/>
	</g>
</g>
</svg>
